<svg data-v-423bf9ae="" xmlns="http://www.w3.org/2000/svg" viewBox="0 0 208.98388921011306 60" class="font"><!----><!----><!----><g data-v-423bf9ae="" id="852d27e2-aa4a-4d07-acfd-b532f67ae6b0" fill="black" transform="matrix(4.838709826275912,0,0,4.838709826275912,-5.661290204239975,-18.483871928610988)"><path d="M4.32 3.82L1.17 3.82L1.17 13.15L4.32 13.15C7.57 13.15 9.35 11.10 9.35 8.47C9.35 5.86 7.57 3.82 4.32 3.82ZM4.08 11.94L2.65 11.94L2.65 5.03L4.08 5.03C6.58 5.03 7.80 6.39 7.80 8.47C7.80 10.57 6.58 11.94 4.08 11.94ZM17.14 9.70C17.14 7.73 15.81 6.36 13.88 6.36C11.89 6.36 10.47 7.89 10.47 9.84C10.47 11.80 11.87 13.31 14.04 13.31C15.20 13.31 16.16 12.92 16.76 12.25L15.78 11.46C15.36 11.94 14.79 12.19 14.03 12.19C12.79 12.19 12.06 11.33 11.96 10.15L17.14 10.15ZM13.88 7.50C14.92 7.50 15.59 8.12 15.74 9.17L12.02 9.17C12.22 8.17 12.91 7.50 13.88 7.50ZM21.98 6.36C21.04 6.36 20.33 6.74 19.94 7.32L19.76 6.53L18.52 6.53L18.52 13.15L19.94 13.15L19.94 9.11C20.05 7.95 20.84 7.57 21.58 7.57C22.60 7.57 23.04 8.30 23.04 9.38L23.04 13.15L24.46 13.15L24.46 9.06C24.46 7 23.13 6.36 21.98 6.36ZM27.48 11.94L31.18 7.58L31.18 6.53L25.87 6.53L25.87 7.74L29.39 7.74L25.65 12.16L25.65 13.15L31.43 13.15L31.43 11.94ZM37.25 6.53L35.29 11.49L33.32 6.53L31.84 6.53L34.61 13.20L34.17 14.32C33.96 14.82 33.70 15.01 33.40 15.01C33.21 15.01 33.00 14.93 32.91 14.88L32.67 16.06C32.81 16.13 33.12 16.22 33.47 16.22C34.08 16.22 34.83 15.98 35.28 14.86L38.76 6.53ZM39.00 12.22C39.48 12.88 40.48 13.34 41.72 13.34C43.36 13.34 44.36 12.54 44.36 11.35C44.36 9.00 40.86 9.79 40.86 8.36C40.86 7.86 41.24 7.53 42.01 7.51C42.50 7.50 43.05 7.73 43.44 8.11L44.22 7.22C43.78 6.75 42.93 6.36 41.96 6.36C40.38 6.36 39.42 7.19 39.42 8.41C39.42 10.82 42.86 10.09 42.86 11.38C42.86 11.87 42.45 12.21 41.64 12.21C40.98 12.21 40.38 11.97 39.90 11.35Z"></path></g><!----><!----></svg>